<?xml version="1.0" standalone="no"?>
<!DOCTYPE svg PUBLIC "-//W3C//DTD SVG 20010904//EN"
 "http://www.w3.org/TR/2001/REC-SVG-20010904/DTD/svg10.dtd">
<svg version="1.0" xmlns="http://www.w3.org/2000/svg"
 width="204.000000pt" height="192.000000pt" viewBox="0 0 204.000000 192.000000"
 preserveAspectRatio="xMidYMid meet">

<g transform="translate(0.000000,192.000000) scale(0.100000,-0.100000)"
fill="#000000" stroke="none">
<path d="M1180 1296 c0 -48 -101 -136 -121 -105 -4 8 -4 18 1 23 16 16 11 52
-8 69 -37 34 -97 11 -65 -25 22 -25 9 -23 -35 7 -20 13 -53 27 -72 30 l-35 6
30 -14 c49 -23 92 -80 105 -140 14 -60 7 -107 -28 -194 l-21 -51 26 -17 c25
-17 26 -16 62 17 46 45 101 82 108 75 3 -4 -9 -24 -26 -46 -38 -48 -55 -96
-38 -110 7 -5 26 -12 42 -16 l30 -6 -28 16 c-27 16 -28 17 -12 41 8 13 36 43
61 66 25 23 52 55 61 71 13 26 13 31 0 44 -12 13 -21 13 -68 0 -30 -8 -62 -18
-73 -22 -14 -6 -17 -5 -13 6 3 8 13 38 22 67 11 33 34 72 61 103 36 41 44 57
44 89 0 22 -2 40 -5 40 -3 0 -5 -11 -5 -24z"/>
<path d="M730 1235 c48 -26 60 -29 60 -17 0 8 -79 42 -95 42 -6 -1 10 -12 35
-25z"/>
<path d="M1288 1243 c-21 -9 -38 -20 -38 -24 0 -13 11 -10 60 16 50 27 36 32
-22 8z"/>
<path d="M1 85 l-1 -85 1020 0 1020 0 0 28 c0 15 -6 34 -12 41 -10 11 -10 14
0 18 7 3 12 22 12 44 l0 39 -1019 0 -1019 0 -1 -85z m264 -3 c1 -12 -4 -22
-11 -22 -7 0 -19 -3 -28 -6 -9 -3 -16 -1 -16 6 0 6 4 9 9 6 5 -3 15 1 22 10
10 13 10 17 -1 24 -8 5 -17 7 -19 4 -3 -3 1 -9 9 -14 9 -6 10 -10 3 -10 -15 0
-26 17 -18 30 10 16 48 -5 50 -28z m110 20 c6 -4 11 -18 13 -31 2 -19 0 -21
-11 -12 -8 6 -17 8 -20 4 -4 -3 -7 1 -7 10 0 10 -5 17 -11 17 -6 0 -8 -9 -4
-22 6 -19 5 -21 -6 -11 -8 8 -16 9 -24 3 -9 -7 -16 -6 -25 4 -16 20 -3 39 24
32 11 -3 28 -1 36 4 18 12 22 12 35 2z m-308 -8 c-3 -3 -12 -4 -19 -1 -8 3 -5
6 6 6 11 1 17 -2 13 -5z m31 -8 c-7 -8 -15 -12 -17 -11 -5 6 10 25 20 25 5 0
4 -6 -3 -14z m91 -3 c-7 -8 -15 -10 -18 -6 -4 4 -10 11 -14 14 -4 4 4 7 18 7
21 0 23 -3 14 -15z m1677 -20 c-10 -10 -19 5 -10 18 6 11 8 11 12 0 2 -7 1
-15 -2 -18z m37 10 c-3 -7 -9 -10 -14 -7 -14 8 -11 21 5 21 8 0 12 -6 9 -14z
m37 7 c0 -5 -4 -10 -10 -10 -5 0 -10 5 -10 10 0 6 5 10 10 10 6 0 10 -4 10
-10z m24 -6 c3 -8 2 -12 -4 -9 -6 3 -10 10 -10 16 0 14 7 11 14 -7z m41 -13
c-6 -5 -25 10 -25 20 0 5 6 4 14 -3 8 -7 12 -15 11 -17z m-405 9 c0 -5 -7 -7
-15 -4 -8 4 -15 8 -15 10 0 2 7 4 15 4 8 0 15 -4 15 -10z m60 0 c0 -5 -5 -10
-11 -10 -5 0 -7 5 -4 10 3 6 8 10 11 10 2 0 4 -4 4 -10z m40 6 c0 -11 -19 -15
-25 -6 -3 5 1 10 9 10 9 0 16 -2 16 -4z m30 -6 c0 -5 -4 -10 -10 -10 -5 0 -10
5 -10 10 0 6 5 10 10 10 6 0 10 -4 10 -10z m90 6 c0 -3 -4 -8 -10 -11 -5 -3
-10 -1 -10 4 0 6 5 11 10 11 6 0 10 -2 10 -4z"/>
<path d="M290 74 c0 -8 5 -12 10 -9 6 4 8 11 5 16 -9 14 -15 11 -15 -7z"/>
</g>
</svg>
