<?xml version="1.0" standalone="no"?>
<!DOCTYPE svg PUBLIC "-//W3C//DTD SVG 20010904//EN"
 "http://www.w3.org/TR/2001/REC-SVG-20010904/DTD/svg10.dtd">
<svg version="1.0" xmlns="http://www.w3.org/2000/svg"
 width="204.000000pt" height="192.000000pt" viewBox="0 0 204.000000 192.000000"
 preserveAspectRatio="xMidYMid meet">

<g transform="translate(0.000000,192.000000) scale(0.100000,-0.100000)"
fill="#000000" stroke="none">
<path d="M1014 1461 c-17 -11 -37 -34 -44 -53 l-14 -33 -3 28 c-3 18 -10 27
-23 27 -22 0 -33 -15 -37 -50 -3 -20 -1 -22 7 -10 6 10 10 11 10 3 0 -7 5 -13
10 -13 6 0 8 11 4 25 -3 14 -2 25 3 25 5 0 9 -10 10 -22 1 -11 8 -25 15 -29 8
-6 -2 -9 -27 -9 -35 0 -42 4 -53 30 -15 34 -40 44 -82 35 -33 -7 -90 -50 -90
-68 0 -6 7 -2 15 9 8 10 15 15 14 9 -1 -5 0 -14 1 -20 2 -5 3 -19 4 -30 1 -15
8 -20 31 -20 29 0 30 -2 35 -50 5 -48 6 -50 35 -48 25 2 27 1 9 -6 -36 -16
-72 -2 -76 28 -2 18 -10 27 -25 29 -14 2 -23 -2 -23 -10 0 -7 -5 -5 -12 6 -6
11 -11 34 -10 52 1 18 -2 35 -6 38 -4 2 -9 -14 -9 -37 -1 -23 2 -44 8 -48 6
-3 11 -20 11 -37 1 -26 4 -30 15 -21 10 9 12 9 8 -2 -2 -8 4 -25 14 -38 l18
-24 31 22 c17 12 33 18 36 13 9 -14 -12 -85 -28 -94 -26 -15 -46 -39 -46 -56
0 -9 -12 -27 -27 -40 -16 -13 -23 -21 -17 -18 12 6 12 -43 1 -61 -4 -7 -3 -14
3 -18 5 -3 10 -12 10 -18 0 -7 -4 -6 -10 3 -8 13 -10 12 -10 -2 0 -10 -4 -18
-10 -18 -5 0 -6 7 -3 17 4 11 3 14 -5 9 -8 -5 -12 1 -12 15 0 22 0 22 15 3 14
-18 15 -17 5 8 -7 22 -6 26 5 21 19 -7 19 4 1 22 -11 12 -15 10 -26 -10 -16
-30 -6 -82 21 -115 11 -14 17 -19 13 -11 -5 9 -3 12 5 7 6 -4 9 -12 5 -17 -3
-6 1 -18 9 -27 26 -30 28 -55 6 -82 -11 -14 -19 -20 -16 -15 3 6 -11 11 -31
12 l-37 2 40 -14 c22 -8 41 -15 43 -15 1 0 2 -6 2 -14 0 -8 5 -18 12 -22 8 -5
9 -2 5 10 -5 11 -3 15 5 10 6 -4 17 1 25 12 10 13 16 15 21 7 4 -6 25 -14 47
-16 30 -3 26 -4 -15 -4 -30 1 -54 -2 -52 -6 4 -11 4 -21 3 -42 -1 -18 0 -18
11 3 9 18 19 22 55 22 39 0 43 -2 43 -25 0 -23 -4 -25 -47 -26 -27 -1 -53 -1
-60 0 -6 1 -14 -3 -18 -9 -14 -22 -26 -9 -20 22 l6 33 -15 -32 c-10 -23 -22
-33 -37 -33 -19 0 -20 2 -8 18 8 9 17 20 21 23 14 10 -17 59 -40 65 -31 8 -37
0 -34 -44 2 -28 0 -33 -7 -22 -9 13 -11 12 -11 -3 0 -11 9 -21 20 -24 26 -7
15 -25 -13 -22 -12 1 -29 -1 -37 -4 -8 -3 -51 -15 -95 -26 -82 -21 -168 -49
-150 -50 6 0 53 6 105 14 191 29 445 40 657 27 170 -10 346 -30 418 -47 11 -3
5 2 -13 10 -50 23 -221 64 -325 79 l-92 12 1 65 c1 35 11 92 23 127 17 49 19
67 10 84 -8 14 8 7 54 -26 103 -73 220 -106 243 -68 14 22 41 141 49 213 l6
55 43 12 c52 13 102 66 111 116 9 47 -24 119 -67 146 -70 42 -169 16 -202 -54
-29 -61 -19 -122 26 -173 l20 -21 -38 -51 -38 -50 -16 37 c-20 44 -65 72 -114
72 -35 0 -49 14 -24 22 19 7 -16 54 -53 73 -20 11 -29 21 -25 31 3 9 6 20 6
25 0 5 11 4 24 -3 33 -14 52 -6 61 29 3 15 11 31 17 34 6 4 13 31 14 60 2 28
8 57 13 62 17 17 13 52 -6 69 -58 50 -162 64 -219 29z m-215 -70 c7 -5 10 -14
7 -20 -9 -14 -36 -14 -56 -1 -11 8 -7 9 15 5 17 -3 24 -2 18 1 -14 6 -18 24
-5 24 4 0 13 -4 21 -9z m51 -6 c7 -8 10 -15 7 -15 -3 0 -14 -3 -24 -6 -15 -5
-16 -4 -3 5 13 10 13 12 0 21 -8 5 -10 10 -4 10 6 0 17 -7 24 -15z m128 -91
c-3 -14 -5 -12 -10 9 -3 19 -2 25 4 19 6 -6 8 -18 6 -28z m-39 -36 l12 -23 -5
23 c-5 27 8 28 34 2 20 -20 28 -56 10 -45 -5 3 -10 13 -10 21 0 27 -15 14 -35
-31 -11 -25 -21 -41 -23 -36 -2 6 -3 13 -2 17 1 4 -3 10 -10 14 -7 5 -8 14 -1
33 7 17 7 27 1 27 -6 0 -10 5 -10 10 0 19 27 10 39 -12z m-39 -24 c0 -8 -4
-12 -10 -9 -5 3 -10 10 -10 16 0 5 5 9 10 9 6 0 10 -7 10 -16z m653 -4 c82
-65 35 -186 -71 -183 -71 2 -114 86 -78 152 28 51 104 67 149 31z m-667 -57
c-11 -11 -17 4 -9 23 7 18 8 18 11 1 2 -10 1 -21 -2 -24z m-108 -7 c-7 -8 -15
-12 -17 -11 -5 6 10 25 20 25 5 0 4 -6 -3 -14z m118 -34 c1 -7 0 -8 -3 -2 -2
5 -9 8 -14 4 -5 -3 -9 0 -9 6 0 15 23 7 26 -8z m-30 -56 c-4 -20 -12 -36 -18
-36 -6 0 -7 7 -3 18 15 34 17 62 6 62 -6 0 -11 -5 -11 -12 0 -6 -2 -9 -5 -6
-3 3 -2 13 1 22 6 16 8 16 22 3 10 -11 13 -26 8 -51z m79 43 c-4 -5 1 -19 10
-29 9 -10 15 -25 12 -32 -4 -9 -6 -7 -6 4 -1 11 -6 15 -16 12 -11 -5 -15 1
-15 18 0 14 3 28 7 31 10 11 15 8 8 -4z m-30 -57 c-9 -9 -25 11 -25 31 1 21 1
21 15 -3 7 -14 12 -27 10 -28z m-85 -12 c0 -5 -4 -10 -10 -10 -5 0 -10 5 -10
10 0 6 5 10 10 10 6 0 10 -4 10 -10z m-45 -46 c-19 -19 -28 -14 -19 10 3 9 10
13 15 10 5 -3 10 3 10 13 1 17 2 17 6 1 2 -10 -3 -25 -12 -34z m125 -4 c0 -21
-6 -40 -12 -43 -9 -3 -13 9 -13 43 0 34 4 46 13 43 6 -3 12 -22 12 -43z m-110
-30 c0 -5 -4 -10 -10 -10 -5 0 -10 5 -10 10 0 6 5 10 10 10 6 0 10 -4 10 -10z
m140 -75 c6 -15 6 -53 1 -92 -4 -38 -7 -96 -6 -131 1 -35 -1 -58 -5 -52 -5 7
-10 3 -15 -12 -6 -20 -8 -20 -12 -5 -3 10 0 23 5 30 6 7 13 30 17 52 6 40 6
40 -10 15 l-16 -25 5 34 c4 19 1 40 -5 47 -15 19 -2 74 17 67 10 -4 14 3 13
28 0 27 -2 30 -8 14 -7 -17 -8 -17 -15 8 -12 48 17 67 34 22z m-53 -62 c-3
-10 -5 -2 -5 17 0 19 2 27 5 18 2 -10 2 -26 0 -35z m-93 -75 c-4 -24 -10 -47
-15 -52 -5 -6 -9 -18 -9 -28 0 -10 -3 -18 -7 -18 -5 0 -8 24 -9 53 0 28 1 42
4 30 4 -27 24 -32 21 -5 -3 18 9 62 17 62 2 0 1 -19 -2 -42z m93 -70 c-2 -13
-4 -3 -4 22 0 25 2 35 4 23 2 -13 2 -33 0 -45z m16 -33 c-3 -9 -8 -14 -10 -11
-3 3 -2 9 2 15 9 16 15 13 8 -4z m-224 -61 c6 4 11 1 11 -7 0 -8 -8 -17 -18
-19 -14 -4 -18 1 -20 21 -1 18 1 22 7 12 5 -7 14 -10 20 -7z m271 -14 c0 -13
-7 -20 -20 -20 -11 0 -20 4 -20 10 0 5 7 7 15 4 9 -4 15 0 15 10 0 9 2 16 5
16 3 0 5 -9 5 -20z"/>
<path d="M1430 1205 c-28 -29 -30 -73 -7 -109 45 -68 157 -31 157 51 0 75 -98
113 -150 58z"/>
<path d="M910 780 c0 -11 5 -20 10 -20 6 0 10 9 10 20 0 11 -4 20 -10 20 -5 0
-10 -9 -10 -20z"/>
<path d="M711 1314 c0 -11 3 -14 6 -6 3 7 2 16 -1 19 -3 4 -6 -2 -5 -13z"/>
<path d="M538 1193 c7 -3 16 -2 19 1 4 3 -2 6 -13 5 -11 0 -14 -3 -6 -6z"/>
<path d="M587 1193 c13 -2 32 -16 43 -30 11 -14 20 -21 20 -16 0 17 -46 53
-66 52 -16 -1 -15 -2 3 -6z"/>
<path d="M490 1151 c-6 -16 -10 -38 -7 -48 3 -13 5 -11 6 7 0 14 8 36 17 48 8
12 11 22 6 22 -5 0 -15 -13 -22 -29z"/>
<path d="M565 1162 c-31 -6 -45 -22 -45 -50 0 -24 1 -24 13 -8 12 16 15 16 26
3 9 -12 9 -17 0 -23 -8 -4 -9 -3 -5 4 4 7 2 12 -3 12 -17 0 -13 -27 5 -34 23
-9 53 11 60 39 8 32 -3 47 -29 40 -17 -5 -19 -4 -7 4 18 12 11 19 -15 13z m15
-50 c0 -1 -8 2 -19 7 -10 6 -21 7 -25 4 -3 -3 -6 -2 -6 4 0 19 12 21 31 5 10
-9 19 -18 19 -20z m17 -24 c-3 -8 -6 -5 -6 6 -1 11 2 17 5 13 3 -3 4 -12 1
-19z"/>
<path d="M645 1105 c-17 -62 -76 -83 -128 -45 -30 22 -31 22 -13 2 10 -12 27
-24 36 -27 18 -6 40 -71 40 -119 0 -16 6 -26 15 -26 8 0 15 -5 15 -11 0 -5 -4
-7 -10 -4 -21 13 -8 -18 19 -45 16 -16 26 -32 22 -36 -3 -4 -1 -4 6 0 9 5 10
13 1 31 -6 13 -15 22 -19 19 -11 -6 -11 1 1 50 7 33 5 47 -16 89 -13 28 -23
51 -21 51 35 11 73 64 64 89 -3 7 -8 -1 -12 -18z m-51 -107 c18 -43 31 -99 16
-78 -5 8 -10 24 -10 35 0 11 -7 29 -15 39 -8 11 -15 23 -15 28 0 17 10 7 24
-24z"/>
<path d="M605 655 c-14 -13 -25 -30 -25 -36 0 -7 1 -10 3 -8 1 2 15 19 31 37
35 37 27 44 -9 7z"/>
<path d="M797 578 c-3 -10 7 -12 39 -9 24 1 44 7 44 12 0 14 -77 11 -83 -3z"/>
</g>
</svg>
